<?xml version="1.0" encoding="UTF-8" standalone="no"?>
<!-- Generator: Adobe Illustrator 19.0.0, SVG Export Plug-In . SVG Version: 6.00 Build 0)  -->

<svg
   xmlns:dc="http://purl.org/dc/elements/1.1/"
   xmlns:cc="http://creativecommons.org/ns#"
   xmlns:rdf="http://www.w3.org/1999/02/22-rdf-syntax-ns#"
   xmlns:svg="http://www.w3.org/2000/svg"
   xmlns="http://www.w3.org/2000/svg"
   xmlns:sodipodi="http://sodipodi.sourceforge.net/DTD/sodipodi-0.dtd"
   xmlns:inkscape="http://www.inkscape.org/namespaces/inkscape"
   version="1.1"
   id="Layer_1"
   x="0px"
   y="0px"
   viewBox="0 0 472.615 472.615"
   style="enable-background:new 0 0 472.615 472.615;"
   xml:space="preserve"
   sodipodi:docname="fire-red-art-bomb.svg"
   inkscape:version="0.92.3 (2405546, 2018-03-11)"><metadata
   id="metadata43"><rdf:RDF><cc:Work
       rdf:about=""><dc:format>image/svg+xml</dc:format><dc:type
         rdf:resource="http://purl.org/dc/dcmitype/StillImage" /><dc:title></dc:title></cc:Work></rdf:RDF></metadata><defs
   id="defs41" /><sodipodi:namedview
   pagecolor="#ffffff"
   bordercolor="#666666"
   borderopacity="1"
   objecttolerance="10"
   gridtolerance="10"
   guidetolerance="10"
   inkscape:pageopacity="0"
   inkscape:pageshadow="2"
   inkscape:window-width="1299"
   inkscape:window-height="713"
   id="namedview39"
   showgrid="false"
   inkscape:pagecheckerboard="true"
   inkscape:zoom="0.49934938"
   inkscape:cx="236.3075"
   inkscape:cy="236.3075"
   inkscape:window-x="67"
   inkscape:window-y="27"
   inkscape:window-maximized="1"
   inkscape:current-layer="Layer_1" />

<g
   id="g8">
</g>
<g
   id="g10">
</g>
<g
   id="g12">
</g>
<g
   id="g14">
</g>
<g
   id="g16">
</g>
<g
   id="g18">
</g>
<g
   id="g20">
</g>
<g
   id="g22">
</g>
<g
   id="g24">
</g>
<g
   id="g26">
</g>
<g
   id="g28">
</g>
<g
   id="g30">
</g>
<g
   id="g32">
</g>
<g
   id="g34">
</g>
<g
   id="g36">
</g>
<g
   id="g4158"
   transform="matrix(0.54628283,0,0,0.4641381,102.80418,28.865766)"><g
     id="g4099">
	<g
   id="g4097">
		<g
   id="g4095">
			<path
   id="path4091"
   d="m 346.996,68.267 h -14.199 v -8.354 c 0,-14.217 -11.563,-25.779 -25.788,-25.779 H 281.597 V 19.277 C 281.596,8.644 272.943,0 262.311,0 h -12.629 c -10.633,0 -19.285,8.644 -19.285,19.277 v 14.857 h -25.412 c -14.225,0 -25.788,11.563 -25.788,25.779 v 8.354 h -14.199 c -20.403,0 -37.001,16.597 -37.001,36.992 v 34.654 c 0,11.298 5.06,21.837 13.884,28.902 l 37.316,29.841 v 14.677 h 42.667 c 4.71,0 8.533,3.814 8.533,8.533 0,4.71 -3.823,8.533 -8.533,8.533 h -42.667 v 17.067 h 34.133 c 4.71,0 8.533,3.814 8.533,8.533 0,4.71 -3.823,8.533 -8.533,8.533 h -34.133 v 62.686 l 16.597,8.738 c 37.641,18.816 82.765,18.816 120.567,-0.085 l 16.435,-9.378 V 198.656 l 37.316,-29.85 c 8.823,-7.057 13.884,-17.596 13.884,-28.894 v -34.654 c 0,-20.394 -16.597,-36.991 -37,-36.991 z m -167.8,108.535 -26.65,-21.316 c -4.753,-3.806 -7.484,-9.481 -7.484,-15.573 v -34.654 c 0,-10.991 8.943,-19.925 19.934,-19.925 h 14.199 v 91.468 z M 264.529,42.667 v 88.695 c 0,13.559 -2.918,26.803 -8.533,38.955 -5.615,-12.151 -8.533,-25.395 -8.533,-38.955 V 42.667 19.277 c 0,-1.22 0.998,-2.21 2.219,-2.21 h 12.629 c 1.22,0 2.219,0.99 2.219,2.21 v 23.39 z m 102.401,97.246 c 0,6.093 -2.731,11.767 -7.475,15.565 l -26.658,21.325 v -91.47 h 14.199 c 10.991,0 19.934,8.934 19.934,19.925 z"
   inkscape:connector-curvature="0" />
			<path
   id="path4093"
   d="m 255.867,367.079 c -23.347,0 -46.626,-5.325 -67.866,-15.94 l -8.806,-4.634 v 0.316 c 0,54.135 16.828,105.89 48.666,149.666 l 1.365,1.877 c 6.306,8.661 16.06,13.628 26.769,13.628 10.709,0 20.471,-4.966 26.769,-13.628 l 1.365,-1.877 c 31.838,-43.776 48.666,-95.531 48.666,-149.666 v -0.683 l -8.397,4.779 c -21.546,10.778 -45.064,16.162 -68.531,16.162 z"
   inkscape:connector-curvature="0" />
		</g>
	</g>
</g><g
     id="g4101">
</g><g
     id="g4103">
</g><g
     id="g4105">
</g><g
     id="g4107">
</g><g
     id="g4109">
</g><g
     id="g4111">
</g><g
     id="g4113">
</g><g
     id="g4115">
</g><g
     id="g4117">
</g><g
     id="g4119">
</g><g
     id="g4121">
</g><g
     id="g4123">
</g><g
     id="g4125">
</g><g
     id="g4127">
</g><g
     id="g4129">
</g></g><path
   id="path4160"
   d="m 289.59053,280.90284 -6.84827,6.10568 47.70222,54.74823 6.84825,-6.10568 z m -13.96728,12.45345 -16.93307,15.09733 7.18416,8.24434 z m 7.79219,7.63957 -9.44488,22.61212 -0.67319,1.61148 8.78418,10.08109 10.11715,-24.22454 z m -31.20436,13.23488 -79.25955,70.66813 0.025,0.0289 -0.59787,0.53327 c -9.06741,8.08451 -16.76119,16.67096 -22.82769,25.19572 l 42.90166,49.23985 c 9.12285,-5.01671 18.50999,-11.65985 27.5774,-19.74436 l 0.59833,-0.5342 0.0254,0.0294 2.87846,-2.56725 76.38017,-68.10136 z m 47.41158,5.3663 -9.44535,22.61351 -0.67273,1.61008 9.62786,11.04902 10.11715,-24.2236 z m 17.0509,19.57003 -9.44445,22.61352 -0.44955,1.07635 17.1849,-15.32168 z M 144.603,418.19312 c -1.95348,3.2524 -3.66393,6.47208 -5.0893,9.624 -3.10948,6.8759 -4.94376,13.44987 -5.15491,19.52658 -0.21115,6.07622 1.30617,11.8052 5.05002,16.1017 3.74387,4.29696 9.17137,6.53798 15.15702,7.08901 5.98565,0.5515 12.66342,-0.46363 19.79675,-2.721 3.27028,-1.03475 6.64266,-2.34618 10.07742,-3.89878 z"
   inkscape:connector-curvature="0"
   style="fill:#000000;stroke-width:0.46469235" /></svg>