<?xml version="1.0" encoding="iso-8859-1"?>
<!-- Generator: Adobe Illustrator 19.0.0, SVG Export Plug-In . SVG Version: 6.00 Build 0)  -->
<svg version="1.1" id="Layer_1" xmlns="http://www.w3.org/2000/svg" xmlns:xlink="http://www.w3.org/1999/xlink" x="0px" y="0px"
	 viewBox="0 0 511.992 511.992" style="enable-background:new 0 0 511.992 511.992;" xml:space="preserve">
<g>
	<g>
		<g>
			<path d="M346.996,68.267h-14.199v-8.354c0-14.217-11.563-25.779-25.788-25.779h-25.412V19.277C281.596,8.644,272.943,0,262.311,0
				h-12.629c-10.633,0-19.285,8.644-19.285,19.277v14.857h-25.412c-14.225,0-25.788,11.563-25.788,25.779v8.354h-14.199
				c-20.403,0-37.001,16.597-37.001,36.992v34.654c0,11.298,5.06,21.837,13.884,28.902l37.316,29.841v14.677h42.667
				c4.71,0,8.533,3.814,8.533,8.533c0,4.71-3.823,8.533-8.533,8.533h-42.667v17.067h34.133c4.71,0,8.533,3.814,8.533,8.533
				c0,4.71-3.823,8.533-8.533,8.533h-34.133v62.686l16.597,8.738c37.641,18.816,82.765,18.816,120.567-0.085l16.435-9.378V198.656
				l37.316-29.85c8.823-7.057,13.884-17.596,13.884-28.894v-34.654C383.996,84.864,367.399,68.267,346.996,68.267z M179.196,176.802
				l-26.65-21.316c-4.753-3.806-7.484-9.481-7.484-15.573v-34.654c0-10.991,8.943-19.925,19.934-19.925h14.199V176.802z
				 M264.529,42.667v88.695c0,13.559-2.918,26.803-8.533,38.955c-5.615-12.151-8.533-25.395-8.533-38.955V42.667v-23.39
				c0-1.22,0.998-2.21,2.219-2.21h12.629c1.22,0,2.219,0.99,2.219,2.21V42.667z M366.93,139.913c0,6.093-2.731,11.767-7.475,15.565
				l-26.658,21.325V85.333h14.199c10.991,0,19.934,8.934,19.934,19.925V139.913z"/>
			<path d="M255.867,367.079c-23.347,0-46.626-5.325-67.866-15.94l-8.806-4.634v0.316c0,54.135,16.828,105.89,48.666,149.666
				l1.365,1.877c6.306,8.661,16.06,13.628,26.769,13.628c10.709,0,20.471-4.966,26.769-13.628l1.365-1.877
				c31.838-43.776,48.666-95.531,48.666-149.666v-0.683l-8.397,4.779C302.852,361.695,279.334,367.079,255.867,367.079z"/>
		</g>
	</g>
</g>
<g>
</g>
<g>
</g>
<g>
</g>
<g>
</g>
<g>
</g>
<g>
</g>
<g>
</g>
<g>
</g>
<g>
</g>
<g>
</g>
<g>
</g>
<g>
</g>
<g>
</g>
<g>
</g>
<g>
</g>
</svg>
