<?xml version="1.0" encoding="UTF-8" standalone="no"?>
<!-- Generator: Adobe Illustrator 19.0.0, SVG Export Plug-In . SVG Version: 6.00 Build 0)  -->

<svg
   xmlns:dc="http://purl.org/dc/elements/1.1/"
   xmlns:cc="http://creativecommons.org/ns#"
   xmlns:rdf="http://www.w3.org/1999/02/22-rdf-syntax-ns#"
   xmlns:svg="http://www.w3.org/2000/svg"
   xmlns="http://www.w3.org/2000/svg"
   xmlns:sodipodi="http://sodipodi.sourceforge.net/DTD/sodipodi-0.dtd"
   xmlns:inkscape="http://www.inkscape.org/namespaces/inkscape"
   version="1.1"
   id="Layer_1"
   x="0px"
   y="0px"
   viewBox="0 0 472.615 472.615"
   style="enable-background:new 0 0 472.615 472.615;"
   xml:space="preserve"
   sodipodi:docname="fire-red.svg"
   inkscape:version="0.92.3 (2405546, 2018-03-11)"><metadata
   id="metadata43"><rdf:RDF><cc:Work
       rdf:about=""><dc:format>image/svg+xml</dc:format><dc:type
         rdf:resource="http://purl.org/dc/dcmitype/StillImage" /><dc:title /></cc:Work></rdf:RDF></metadata><defs
   id="defs41" /><sodipodi:namedview
   pagecolor="#ffffff"
   bordercolor="#666666"
   borderopacity="1"
   objecttolerance="10"
   gridtolerance="10"
   guidetolerance="10"
   inkscape:pageopacity="0"
   inkscape:pageshadow="2"
   inkscape:window-width="1299"
   inkscape:window-height="713"
   id="namedview39"
   showgrid="false"
   inkscape:pagecheckerboard="true"
   inkscape:zoom="0.49934938"
   inkscape:cx="236.3075"
   inkscape:cy="236.3075"
   inkscape:window-x="67"
   inkscape:window-y="27"
   inkscape:window-maximized="1"
   inkscape:current-layer="g29" />
<g
   id="g6">
	<g
   id="g4">
		<path
   d="M398.239,235.891l-0.278-1.111C357.041,106.465,235.114,15.368,229.929,11.572L214.191,0l1.019,19.441    c0,0.834,2.869,76.193-70.176,138.868c-79.34,68.138-78.878,124.334-78.692,154.515l0.094,4.166    c0,82.302,60.399,143.839,146.811,153.984c-4.704-0.739-9.509-1.698-14.331-3.172c-27.867-8.61-44.16-28.144-47.308-56.289    l-0.74-5.554c-2.5-21.756-5.74-48.697,41.845-99.801c17.775-19.071,33.236-39.624,46.012-61.01l6.388-10.738l8.424,9.257    c25.182,27.495,44.438,55.269,57.399,82.302c11.942,23.886,12.684,61.659,11.757,69.713    c-4.536,41.105-34.254,71.749-74.063,76.192c-2.595,0.296-6.479,0.583-11.234,0.689c0.418,0.003,0.816,0.051,1.236,0.051    c94.06,0,167.66-75.637,167.66-172.197C406.293,277.274,398.516,237.557,398.239,235.891z"
   id="path2" />
	</g>
</g>
<g
   id="g8">
</g>
<g
   id="g10">
</g>
<g
   id="g12">
</g>
<g
   id="g14">
</g>
<g
   id="g16">
</g>
<g
   id="g18">
</g>
<g
   id="g20">
</g>
<g
   id="g22">
</g>
<g
   id="g24">
</g>
<g
   id="g26">
</g>
<g
   id="g28">
</g>
<g
   id="g30">
</g>
<g
   id="g32">
</g>
<g
   id="g34">
</g>
<g
   id="g36">
</g>
<g
   id="g29"><g
     id="g33"><path
       style="fill:#ff0000;stroke-width:2.00260592"
       d="m 279.45649,463.27509 c 19.69615,-9.90531 37.27733,-33.89823 42.42384,-57.89558 2.80305,-13.07024 1.06455,-43.98223 -3.41554,-60.73104 -6.5143,-24.35371 -29.64626,-61.97287 -58.92706,-95.83227 -7.15932,-8.27881 -13.46752,-15.06814 -14.01824,-15.08743 -0.55072,-0.02 -7.54592,10.06041 -15.54488,22.39933 -7.99897,12.3389 -23.00717,32.10878 -33.35156,43.93305 -24.35463,27.83884 -31.75747,38.06535 -39.70918,54.85544 -6.31044,13.32456 -6.51361,14.56089 -6.37531,38.79572 0.11871,20.80457 0.88521,26.9271 4.53817,36.24935 4.28819,10.94338 14.27907,23.4391 24.35677,30.46336 l 5.00651,3.4896 -5.00651,-1.26745 c -24.00644,-6.07747 -47.19808,-20.00785 -68.08861,-40.89838 -25.094483,-25.09449 -36.896966,-48.067 -42.207771,-82.1538 -2.92994,-18.80547 -1.31006,-58.92682 3.03014,-75.05076 8.984985,-33.37943 30.285651,-64.66033 68.484531,-100.57233 38.2086,-35.92113 54.49597,-59.44319 66.94709,-96.684349 5.00043,-14.956236 6.63038,-23.879419 7.62176,-41.725586 l 1.26106,-22.7008298 10.01303,7.5517428 c 89.63228,67.599903 161.81531,169.428262 174.46765,246.120932 5.04707,30.59297 4.61965,66.91185 -1.03699,88.11466 -15.18015,56.90002 -54.87609,99.96746 -109.15898,118.43026 -17.50216,5.95287 -22.94432,6.04735 -11.30992,0.19646 z"
       id="path26"
       inkscape:connector-curvature="0" /></g></g></svg>