<?xml version="1.0" encoding="UTF-8" standalone="no"?>
<!-- Generator: Adobe Illustrator 19.0.0, SVG Export Plug-In . SVG Version: 6.00 Build 0)  -->

<svg
   xmlns:dc="http://purl.org/dc/elements/1.1/"
   xmlns:cc="http://creativecommons.org/ns#"
   xmlns:rdf="http://www.w3.org/1999/02/22-rdf-syntax-ns#"
   xmlns:svg="http://www.w3.org/2000/svg"
   xmlns="http://www.w3.org/2000/svg"
   xmlns:sodipodi="http://sodipodi.sourceforge.net/DTD/sodipodi-0.dtd"
   xmlns:inkscape="http://www.inkscape.org/namespaces/inkscape"
   version="1.1"
   id="Layer_1"
   x="0px"
   y="0px"
   viewBox="0 0 472.615 472.615"
   style="enable-background:new 0 0 472.615 472.615;"
   xml:space="preserve"
   sodipodi:docname="fire-red-art-clear-number.svg"
   inkscape:version="0.92.3 (2405546, 2018-03-11)"><metadata
   id="metadata43"><rdf:RDF><cc:Work
       rdf:about=""><dc:format>image/svg+xml</dc:format><dc:type
         rdf:resource="http://purl.org/dc/dcmitype/StillImage" /><dc:title></dc:title></cc:Work></rdf:RDF></metadata><defs
   id="defs41" /><sodipodi:namedview
   pagecolor="#ffffff"
   bordercolor="#666666"
   borderopacity="1"
   objecttolerance="10"
   gridtolerance="10"
   guidetolerance="10"
   inkscape:pageopacity="0"
   inkscape:pageshadow="2"
   inkscape:window-width="1299"
   inkscape:window-height="713"
   id="namedview39"
   showgrid="false"
   inkscape:pagecheckerboard="true"
   inkscape:zoom="0.49934938"
   inkscape:cx="236.3075"
   inkscape:cy="236.3075"
   inkscape:window-x="67"
   inkscape:window-y="27"
   inkscape:window-maximized="1"
   inkscape:current-layer="Layer_1" />

<g
   id="g8">
</g>
<g
   id="g10">
</g>
<g
   id="g12">
</g>
<g
   id="g14">
</g>
<g
   id="g16">
</g>
<g
   id="g18">
</g>
<g
   id="g20">
</g>
<g
   id="g22">
</g>
<g
   id="g24">
</g>
<g
   id="g26">
</g>
<g
   id="g28">
</g>
<g
   id="g30">
</g>
<g
   id="g32">
</g>
<g
   id="g34">
</g>
<g
   id="g36">
</g>
<g
   id="g67"><g
     id="g51"><g
       id="g6">
	<g
   id="g4">
		<path
   d="m 398.239,235.891 -0.278,-1.111 C 357.041,106.465 235.114,15.368 229.929,11.572 L 214.191,0 215.21,19.441 c 0,0.834 2.869,76.193 -70.176,138.868 -79.34,68.138 -78.878,124.334 -78.692,154.515 l 0.094,4.166 c 0,82.302 60.399,143.839 146.811,153.984 -4.704,-0.739 -9.509,-1.698 -14.331,-3.172 -27.867,-8.61 -44.16,-28.144 -47.308,-56.289 l -0.74,-5.554 c -2.5,-21.756 -5.74,-48.697 41.845,-99.801 17.775,-19.071 33.236,-39.624 46.012,-61.01 l 6.388,-10.738 8.424,9.257 c 25.182,27.495 44.438,55.269 57.399,82.302 11.942,23.886 12.684,61.659 11.757,69.713 -4.536,41.105 -34.254,71.749 -74.063,76.192 -2.595,0.296 -6.479,0.583 -11.234,0.689 0.418,0.003 0.816,0.051 1.236,0.051 94.06,0 167.66,-75.637 167.66,-172.197 0.001,-23.143 -7.776,-62.86 -8.053,-64.526 z"
   id="path2"
   inkscape:connector-curvature="0" />
	</g>
</g><path
       style="fill:#ff0000;stroke-width:2.00260592"
       d="m 279.45649,463.27509 c 19.69615,-9.90531 37.27733,-33.89823 42.42384,-57.89558 2.80305,-13.07024 1.06455,-43.98223 -3.41554,-60.73104 -6.5143,-24.35371 -29.64626,-61.97287 -58.92706,-95.83227 -7.15932,-8.27881 -13.46752,-15.06814 -14.01824,-15.08743 -0.55072,-0.02 -7.54592,10.06041 -15.54488,22.39933 -7.99897,12.3389 -23.00717,32.10878 -33.35156,43.93305 -24.35463,27.83884 -31.75747,38.06535 -39.70918,54.85544 -6.31044,13.32456 -6.51361,14.56089 -6.37531,38.79572 0.11871,20.80457 0.88521,26.9271 4.53817,36.24935 4.28819,10.94338 14.27907,23.4391 24.35677,30.46336 l 5.00651,3.4896 -5.00651,-1.26745 c -24.00644,-6.07747 -47.19808,-20.00785 -68.08861,-40.89838 -25.094483,-25.09449 -36.896966,-48.067 -42.207771,-82.1538 -2.92994,-18.80547 -1.31006,-58.92682 3.03014,-75.05076 8.984985,-33.37943 30.285651,-64.66033 68.484531,-100.57233 38.2086,-35.92113 54.49597,-59.44319 66.94709,-96.684349 5.00043,-14.956236 6.63038,-23.879419 7.62176,-41.725586 l 1.26106,-22.7008298 10.01303,7.5517428 c 89.63228,67.599903 161.81531,169.428262 174.46765,246.120932 5.04707,30.59297 4.61965,66.91185 -1.03699,88.11466 -15.18015,56.90002 -54.87609,99.96746 -109.15898,118.43026 -17.50216,5.95287 -22.94432,6.04735 -11.30992,0.19646 z"
       id="path45"
       inkscape:connector-curvature="0" /></g><path
     style="fill:#000000;stroke-width:0.57065731"
     inkscape:connector-curvature="0"
     d="m 273.45874,77.14863 -8.52281,7.39862 59.36642,66.34181 8.52282,-7.39862 z m -17.38258,15.09061 -21.07358,18.29437 8.94085,9.99018 z m 9.69756,9.25734 -11.75437,27.4005 -0.83779,1.95272 10.9321,12.21588 12.59101,-29.35435 z m -38.83451,16.03752 -98.64025,85.63292 0.031,0.0351 -0.74407,0.6462 c -11.28456,9.79651 -20.85964,20.20124 -28.409541,30.53122 l 53.392071,59.66696 c 11.35359,-6.07905 23.03608,-14.12896 34.32068,-23.92545 l 0.74463,-0.64732 0.0316,0.0357 3.58232,-3.11088 95.05677,-82.52261 z m 59.00475,6.50267 -11.75495,27.4022 -0.83722,1.95103 11.98208,13.38876 12.59101,-29.35322 z m 21.2202,23.71422 -11.7538,27.40219 -0.55949,1.30428 21.38696,-18.56622 z M 93.018587,243.51171 c -2.431141,3.94114 -4.559838,7.84263 -6.333741,11.66201 -3.86982,8.33194 -6.152613,16.29803 -6.415393,23.66154 -0.262781,7.36294 1.625555,14.3051 6.284861,19.51143 4.659318,5.20689 11.413968,7.92248 18.863236,8.59019 7.44927,0.66828 15.7599,-0.5618 24.6375,-3.29721 4.06992,-1.25387 8.26693,-2.84301 12.54156,-4.72438 z"
     id="path53" /></g></svg>